<?xml version="1.0" encoding="UTF-8"?>
<svg id="Layer_2" data-name="Layer 2" xmlns="http://www.w3.org/2000/svg" viewBox="0 0 1652.57 162.93">
  <defs>
    <style>
      .cls-1 {
        fill: #ef4d47;
      }

      .cls-1, .cls-2, .cls-3, .cls-4, .cls-5 {
        stroke-width: 0px;
      }

      .cls-2 {
        fill: #f37577;
      }

      .cls-3 {
        fill: #fff;
      }

      .cls-4 {
        fill: snow;
      }

      .cls-5 {
        fill: #ec2727;
      }
    </style>
  </defs>
  <g id="Layer_1-2" data-name="Layer 1">
    <g id="_4XIg8l" data-name="4XIg8l">
      <g>
        <path class="cls-5" d="M.97,50.02C35.05,31.35,71.29,18.52,109.18,10.22,137.02,4.13,165.19.76,193.71.14c72.92-1.6,143.1,10.66,209.76,40.97,3.06,1.39,6.04,2.96,9.05,4.45,0,3.37-.03,6.74.04,10.1.04,1.66-.17,2.27-2.25,2.08-6.18-.56-10.45,2.33-12.89,8.05-1.08,2.55-1.67,5.19-2.07,7.92-1.69,11.31-3.4,22.62-5.21,33.91-.68,4.23-3.52,6.5-7.59,7.16-3.88.62-6.72-1.24-8.83-4.35-.62-.91-1.1-1.91-1.65-2.87.54-1.73,1.08-3.46,1.61-5.19,1.09-1.13.77-2.56.77-3.89.03-7.45-.11-14.9.08-22.34.07-2.91-.73-4.13-3.75-3.81-1.15.12-3.26.7-3.06-1.48.29-3.02-1.18-5.82-.72-8.8,1.36-.05,2.75-.29,4.08-.11,2.82.39,3.03-.95,2.37-3.11-1.38-4.48-4.48-7.61-8.08-10.36.93-9.35-6.73-15.86-14.86-15.05-6.21.62-9.88,4.34-12.17,12.72-9.49,0-18.98,0-28.48,0-1.38-5.09-1.01-10.36-1.41-15.54-.6-7.78-5.48-13.43-12.56-13.68-8-.29-13.7,4.47-14.28,12.6-.6,8.32-.62,16.68-.89,25.02-1.09,2.89-2.42,5.67-2.39,8.91.1,12.95.09,25.91.11,38.86-.56,11.51-1.13,23.02-1.66,34.53-.09,1.84,0,3.7-1.36,5.2-6.52-13.95-13.05-27.9-19.57-41.85.11-4.24-.32-8.45-.59-12.68-1.37-21.64-2.57-43.29-3.82-64.93-.39-6.75-6.3-12.29-13.17-12.31-6.97-.01-12.65,5.38-13.3,12.18-.32,3.38.14,6.9-1.26,10.16-1.08-2.36-2.1-4.75-3.26-7.08-2.65-5.32-16.52-6.58-20.16-1.82-.67.87-1,1.99-1.55,2.95-1.28,2.25-1.81,4.87-3.51,6.91-.3-4.47.19-9-.91-13.42-1.48-5.95-7.6-10.32-13.77-9.87-6.47.47-12,5.72-12.39,11.97-.36,5.85-.52,11.7-.81,17.55-.35,6.97-.8,13.93-1.11,20.9-.61,13.69-1.15,27.39-1.72,41.08-.24.69-.43,1.41-.72,2.08-5.76,12.95-11.53,25.9-17.3,38.85-.05.3-.09.6-.14.9l.05-.05c-2.38-1.49-2.14-3.95-2.25-6.24-.58-11.76-.86-23.54-1.82-35.26-.44-5.41.22-10.9-1.14-16.23-.47-7.96.65-15.97-.88-23.89.25-.92.01-1.71-.63-2.39-.04-.16-.08-.32-.1-.49.34-10.33-.28-20.64-1.53-30.86-.75-6.13-7.25-10.67-13.29-10.34-6.81.38-12.4,5.45-12.85,11.82-.38,5.45-.6,10.92-.9,16.38-9.95.02-19.89.03-29.84.05-1.77-11.17-14.04-15.23-22-8.81-4.06,3.28-5.1,7.79-4.97,12.73-6.63,5.41-9.53,12.34-9.09,20.92.32,6.2.25,12.43,0,18.64-.25,6.34.5,12.36,3.85,17.87-1.69,6.73-5.03,10.03-9.84,9.74-4.77-.29-7.99-3.61-8.89-9-2.04-12.24-4.1-24.49-6.23-36.72-1.55-8.92-7.18-13.52-15.07-12.61-2.95.34-5.09,2.41-7.99,3.62v-12.46Z"/>
        <path class="cls-5" d="M412.52,115.75c-29.29,15.55-60.25,26.67-92.41,34.54-29.28,7.17-58.98,11.31-89.13,12.32-72.79,2.42-143.04-8.97-210.02-38.31-6.84-2.99-13.64-6.08-20.1-9.85-.03-14.33-.07-28.65-.07-42.98,0-.85.08-1.79.45-2.52,1.53-3.04,7.69-6.5,10.57-6.07,4.13.63,6.82,3.34,7.75,8.43,2.34,12.83,4.58,25.67,6.74,38.53.63,3.78,2.23,6.82,5.36,9.01,7.78,5.45,16.96,2.13,21.01-7.56,4.18,3.04,8.8,4.94,13.99,5.13,5.05.18,10.12.15,15.18.22.28,3.96.45,7.93.86,11.88.75,7.27,6.61,12.72,13.63,12.83,6.73.11,12.06-4.74,13.51-11.98.85-4.21.43-8.43.6-12.64,1.85-.09,3.7-.32,5.55-.25,9.21.36,16.68-2.86,22.05-10.5.58,4.69.76,9.4.95,14.13.27,6.82.62,13.65,1.36,20.43.8,7.37,6.99,11.96,14.56,11.28,6.7-.6,11.75-6.46,11.66-13.54l7.6-17.12c6.24-.02,12.47.05,18.71-.09,2.24-.05,3.01.62,3.05,2.95.1,6.09.49,12.18.77,18.27.36,7.68,6,13.22,13.45,13.22,7.45,0,13.08-5.54,13.42-13.21.27-6.09.67-12.18.76-18.27.03-2.3.72-3.01,3-2.96,6.23.15,12.47.08,18.71.1,2.86,6.4,6.15,12.61,8.45,19.25-.1.7-.18,1.4.62,1.79.1.08.17.19.19.32-.29.75-.16,1.46.17,2.16,2.32,4.94,8.8,8.07,14.52,7,5.75-1.08,10.38-6.23,10.68-11.93.52-9.96,1.02-19.91,1.53-29.87,4.02,4.03,8.82,6.39,14.56,6.53,4.36.11,8.73.08,13.1.11,1.46,4.43.59,9.09,1.41,13.61,1.09,6.04,6.81,10.99,13.23,10.95,6.51-.04,12.54-5.27,13.09-11.52.38-4.32.56-8.66.83-12.98,4.83-.05,9.66-.24,14.49-.12,6.05.15,11.49-1.31,16.15-5.29.7,1.03,1.32,2.13,2.11,3.08,3.56,4.3,8.31,5.52,13.49,4.38,5.17-1.14,8.52-4.68,9.7-9.83.86-3.74,1.13-7.62,1.74-11.43,1.47-9.33,2.8-18.68,4.56-27.95.95-4.99,3.92-7.31,8.01-7.56,2.75-.17,3.98.59,3.95,3.74-.16,16.71-.09,33.41-.09,50.12Z"/>
        <path class="cls-3" d="M1074.62,101.24c8.59,10.79,16.96,21.3,25.85,32.47-8.58,0-16.48,0-24.38,0-1.4,0-1.78-1.24-2.43-2.07-7.29-9.34-14.6-18.67-21.78-28.09-1.25-1.64-2.48-2.41-4.61-2.4-21.74.08-43.49.11-65.23-.03-2.98-.02-3.46.97-3.41,3.62.16,8.61-.02,17.23.11,25.85.04,2.38-.52,3.31-3.08,3.2-4.99-.2-10-.16-14.99,0-2.2.07-3.02-.4-3.02-2.83.08-31.47.07-62.93.02-94.4,0-2.06.5-2.75,2.67-2.74,36.61.06,73.23.03,109.84.08,2.98,0,5.95.33,8.89.99,9.33,2.09,16.15,9.16,17.48,18.67,1.3,9.31,1.34,18.68-.06,27.97-1.36,9.01-6.34,15.26-15.32,17.9-2.02.6-4.06,1.14-6.54,1.83ZM1024.63,52.9s0-.07,0-.11c-14.37,0-28.73.06-43.1-.06-2.32-.02-2.95.58-2.9,2.9.15,7.61.18,15.23,0,22.84-.07,2.78.49,3.75,3.57,3.73,26.98-.14,53.97-.08,80.96-.09,1.62,0,3.26.03,4.87-.14,5.61-.56,7.77-2.66,8.13-8.3.24-3.85.17-7.74.02-11.6-.25-6.59-2.62-9.08-9.19-9.14-14.11-.13-28.23-.04-42.35-.04Z"/>
        <path class="cls-3" d="M551.76,34.09c15.37,0,30.75-.35,46.1.1,13.92.42,22.45,9,23.27,22.82,1.08,18.07,1.06,36.17-.03,54.24-.74,12.34-9.14,20.67-21.4,21.95-3.86.4-7.71.53-11.59.53-25.74-.02-51.49,0-77.23,0-3.63,0-7.21-.38-10.74-1.2-10.22-2.4-16.61-9.62-17.82-19.99-.45-3.85-.68-7.7-.6-11.57.31-15.1-.75-30.22.59-45.29,1.11-12.53,9.6-20.74,22.25-21.47,15.73-.91,31.48-.09,47.22-.1ZM551.73,114.47s0-.06,0-.09c13.24,0,26.48.1,39.71-.04,6.33-.07,8.42-1.96,8.71-8.17.7-14.83.68-29.68.02-44.51-.3-6.79-2.47-8.69-9.44-8.72-25.85-.12-51.71-.15-77.56-.04-8.02.03-10.21,2.45-10.24,10.38-.05,13.6-.03,27.21,0,40.81,0,1.36.21,2.72.37,4.08.42,3.62,2.65,5.54,6.1,6.03,1.97.28,3.99.26,5.98.26,12.12.02,24.23.01,36.35.01Z"/>
        <path class="cls-3" d="M1194.78,34.13c15.61,0,31.24-.33,46.84.1,13.36.37,22.34,9.58,22.87,22.89.7,17.71.68,35.44,0,53.15-.49,12.97-8.85,21.49-21.66,22.96-5.49.63-10.97.48-16.46.49-24.11.04-48.23.05-72.34-.02-3.23,0-6.51-.27-9.66-.92-11.57-2.36-18.35-9.4-18.95-22.6-.83-18.42-1.37-36.95.36-55.36,1.15-12.25,9.83-20.25,22.17-20.57,15.6-.41,31.22-.1,46.83-.1v-.02ZM1194.77,114.37c13.36,0,26.73.09,40.09-.04,6.3-.06,8.59-2.34,8.65-8.67.14-14.6.14-29.2,0-43.8-.06-6.41-2.5-8.88-8.91-8.91-26.48-.1-52.96-.1-79.43,0-6.14.02-8.82,2.46-8.92,8.62-.25,14.72-.24,29.46-.02,44.18.1,6.32,2.52,8.52,8.82,8.58,13.24.13,26.48.04,39.72.04Z"/>
        <path class="cls-3" d="M710.31,34.1c18.74,0,37.48-.34,56.21.11,14.03.34,22.87,9.61,23.24,23.66.24,8.83.95,17.72-.59,26.52-1.81,10.31-9.24,17.34-19.58,18.72-3.96.53-7.94.77-11.94.77-27.36-.03-54.73.04-82.09-.08-3.2-.01-4.49.5-4.33,4.11.33,7.48-.06,14.98.18,22.47.09,2.94-.87,3.53-3.57,3.41-4.99-.22-10-.15-14.99-.02-1.93.05-2.57-.46-2.56-2.48.06-31.71.08-63.43-.02-95.14,0-2.72,1.47-2.3,3.07-2.3,18.99,0,37.99,0,56.98,0v.26ZM717.36,84.49v-.05c14.36,0,28.72.09,43.07-.04,5.83-.05,8.18-2.48,8.35-8.22.15-5.11.17-10.23-.03-15.34-.19-5.06-2.59-7.39-7.66-7.88-1.36-.13-2.74-.16-4.11-.16-27.59,0-55.19.02-82.78-.06-2.24,0-2.98.46-2.93,2.84.16,8.36.2,16.72-.01,25.08-.08,3,.53,3.97,3.77,3.92,14.11-.21,28.22-.09,42.33-.09Z"/>
        <path class="cls-3" d="M1583.1,34.08c15.37,0,30.75-.32,46.1.1,13.68.37,21.5,8.11,23.23,21.67.18,1.38.5,2.24-1.51,2.37-5.48.35-10.94.94-16.4,1.46-1.7.16-3.01.26-3.55-2.07-.57-2.46-2.53-3.75-5.17-4.21-2.24-.39-4.46-.49-6.7-.49-24.12,0-48.25,0-72.37,0-1.12,0-2.25,0-3.37.06-6.53.33-8.76,1.98-8.99,8.4-.54,15.21-.66,30.45.08,45.66.25,5.06,2.57,7.13,7.66,7.27,7.24.2,14.49.15,21.74.15,18.5.02,37,.02,55.49,0,2.61,0,5.23.09,7.79-.74,1.66-.54,3.16-1.41,3.45-3.08.57-3.36,2.74-3.16,5.22-2.88,4.71.52,9.43,1.08,14.16,1.31,2.46.12,2.73.91,2.39,3.17-2.16,14.25-10.5,21.31-26.75,21.44-28.5.22-56.99.1-85.49,0-3.08-.01-6.21-.57-9.23-1.27-9.75-2.28-16.57-9.58-17.28-19.59-1.37-19.31-1.38-38.67-.01-57.98.84-11.79,9.97-19.97,22.27-20.65,15.73-.87,31.49-.08,47.23-.1Z"/>
        <path class="cls-3" d="M1314.78,56.72v17.1c0,18.73-.09,37.45.08,56.18.03,3.2-.87,3.99-3.93,3.81-4.73-.27-9.49-.16-14.24-.03-2.11.06-3.08-.24-3.07-2.77.09-31.46.09-62.92,0-94.38,0-2.43.8-3.12,2.98-2.78.12.02.25.02.37,0,12.62-2.1,22.29,2.82,32,10.84,27.11,22.39,55.04,43.79,82.81,65.72.9-1.28.45-2.67.45-3.93.04-22.97.1-45.94-.06-68.91-.02-3.23.89-3.96,3.92-3.78,4.61.27,9.25.26,13.86,0,2.86-.16,3.48.73,3.47,3.5-.12,23.34-.07,46.69-.07,70.03,0,7.74-.12,15.48.07,23.22.07,2.69-.78,3.36-3.36,3.26-5.85-.23-12.47,1.54-17.4-.63-6.64-2.93-12-8.77-17.88-13.4-26.46-20.83-52.9-41.67-80.02-63.03Z"/>
        <path class="cls-3" d="M869.04,33.84c20.49,0,40.97.06,61.46-.07,2.84-.02,3.66.71,3.48,3.52-.26,3.98-.3,8,.01,11.97.25,3.15-1.01,3.61-3.78,3.59-15.24-.12-30.48.03-45.72-.13-3.15-.03-4.15.54-4.13,3.97.18,24.46.04,48.93.17,73.39.02,2.97-.76,3.88-3.73,3.71-4.48-.26-9-.28-13.48,0-3.22.21-4.19-.62-4.17-4.02.17-24.09-.01-48.18.19-72.27.03-3.92-1-4.87-4.86-4.81-15.61.23-31.23.02-46.84.17-2.83.03-3.69-.73-3.51-3.54.25-3.85.27-7.75,0-11.6-.22-3.07.64-3.99,3.84-3.96,19.48.16,38.97.08,58.46.08.87,0,1.75,0,2.62,0Z"/>
        <path class="cls-3" d="M1484.26,84.01c0,15.61-.06,31.21.06,46.82.02,2.44-.6,3.17-3.07,3.07-5.12-.2-10.25-.25-15.36.01-2.84.14-3.46-.69-3.45-3.47.11-29.09.05-58.18.1-87.27,0-3.19-1.41-7.45.68-9.27,1.79-1.56,5.94-.48,9.05-.47,3.86,0,9.05-1.38,11.21.56,2.47,2.22.72,7.5.75,11.44.09,12.86.03,25.72.03,38.58Z"/>
        <path class="cls-2" d="M52.67,111.29c-4.04,9.69-13.23,13.01-21.01,7.56-3.13-2.19-4.73-5.24-5.36-9.01-2.16-12.86-4.4-25.7-6.74-38.53-.93-5.09-3.61-7.8-7.75-8.43-2.88-.44-9.04,3.03-10.57,6.07-.37.73-.45,1.68-.45,2.52,0,14.33.04,28.65.07,42.98-1.22-.59-.78-1.73-.78-2.64-.03-19.61-.03-39.21,0-58.82,0-1.03-.51-2.31.87-2.97,0,4.05,0,8.09,0,12.46,2.9-1.21,5.04-3.28,7.99-3.62,7.89-.91,13.51,3.69,15.07,12.61,2.13,12.23,4.18,24.47,6.23,36.72.9,5.4,4.12,8.71,8.89,9,4.82.29,8.15-3.01,9.84-9.74,1.23,1.28,2.46,2.56,3.69,3.83Z"/>
        <path class="cls-2" d="M412.52,115.75c0-16.71-.07-33.42.09-50.12.03-3.15-1.2-3.91-3.95-3.74-4.09.25-7.06,2.57-8.01,7.56-1.76,9.27-3.09,18.63-4.56,27.95-.6,3.81-.87,7.68-1.74,11.43-1.19,5.15-4.53,8.69-9.7,9.83-5.18,1.14-9.94-.09-13.49-4.38-.79-.95-1.41-2.05-2.11-3.08,1.01-1.22,2.01-2.43,3.02-3.65.55.96,1.03,1.96,1.65,2.87,2.11,3.11,4.95,4.98,8.83,4.35,4.07-.65,6.91-2.93,7.59-7.16,1.8-11.29,3.52-22.6,5.21-33.91.41-2.73.99-5.37,2.07-7.92,2.44-5.72,6.71-8.61,12.89-8.05,2.08.19,2.29-.42,2.25-2.08-.07-3.37-.03-6.74-.04-10.1,1.06.69.73,1.78.73,2.72.02,21.59.02,43.18,0,64.77,0,.93.38,2.04-.73,2.7Z"/>
        <path class="cls-4" d="M254.48,140.43c-2.31-6.64-5.6-12.85-8.45-19.25-.72-1.33-1.99-.77-3.01-.77-21.95-.04-43.9-.04-65.85,0-1.01,0-2.29-.6-3,.76-2.53,5.71-5.07,11.41-7.6,17.12-1.55,1.51-.93,4.91-4.38,4.79-5.23-.19-10.46-.25-15.69-.37,5.77-12.95,11.54-25.9,17.3-38.85.3-.67.49-1.38.72-2.08,1.69-3.57,3.37-7.15,5.06-10.72,7.28-16.2,14.57-32.4,21.85-48.6,1.44-2.89,3.05-5.71,3.8-8.89,1.7-2.03,2.23-4.66,3.51-6.91.55-.97.89-2.08,1.55-2.95,3.63-4.75,17.51-3.49,20.16,1.82,1.16,2.32,2.18,4.72,3.26,7.08,1.44,2.81,2.89,5.62,4.33,8.44,7.05,16.39,15,32.37,22.63,48.49,1.72,3.55,3.44,7.1,5.17,10.65,6.52,13.95,13.05,27.9,19.57,41.85-6.67,1.59-13.41.86-20.13.51-.02-.13-.09-.24-.19-.32.16-.73.05-1.36-.62-1.79ZM182.26,103.02c-.81,2.72,1.43,1.51,2.23,1.52,17.08.08,34.16.07,51.24.01.69,0,1.94.89,2.18-.73-3.34-8.42-7.02-16.68-11.24-24.7-.85-2.96-2.09-5.74-3.75-8.34-3.82-9.85-8.53-19.28-13.13-29.54-4.42,10.11-8.49,19.44-12.56,28.76-1.44,3.06-2.88,6.12-4.32,9.19-3.55,7.94-7.11,15.89-10.66,23.83Z"/>
        <path class="cls-4" d="M372.07,107.55c-1.01,1.22-2.01,2.43-3.02,3.65-4.66,3.98-10.1,5.44-16.15,5.29-4.83-.12-9.66.07-14.49.12-1.52-.02-3.04-.04-4.56-.06-6.48.02-12.95.04-19.43.06-1.53-.02-3.05-.04-4.58-.06-4.37-.03-8.73,0-13.1-.11-5.74-.15-10.54-2.51-14.57-6.53-1.55-2.38-2.86-4.89-3.74-7.6-.03-12.95,0-25.91-.11-38.86-.03-3.24,1.3-6.02,2.39-8.91,1.48-1.57,2.96-3.13,4.43-4.7,3.54-2.15,7.22-3.78,11.52-3.65,2.86.08,5.72-.07,8.58-.12,1.54.02,3.07.05,4.61.07,9.49,0,18.98,0,28.48,0,1.53-.02,3.05-.03,4.58-.05,5.94.43,11.94-.4,17.85.73,1.53.55,3.07,1.11,4.6,1.66,3.6,2.74,6.69,5.88,8.07,10.35.67,2.16.45,3.5-2.37,3.11-1.33-.18-2.72.06-4.08.11-1.34,0-2.67,0-4.01-.01-6.96-.02-13.91-.04-20.87-.06-1.52.01-3.05.02-4.57.03-6.47,0-12.94,0-19.42-.01-6.6-.03-13.2-.06-19.8-.07-.96,0-2.03-.25-2.76.71-.24.4-.69.81-.7,1.21-.05,11.36-.04,22.72-.07,34.08,0,1.87,1.06,2.35,2.64,2.32,3.87-.05,7.74-.1,11.6-.15,1.52.02,3.04.04,4.56.06,7.23-.02,14.46-.04,21.69-.06,1.52.02,3.04.04,4.56.06,2.62.03,5.24.14,7.86.08,12.03-.28,9.87,2.37,10.17-10.63.04-1.78-.48-2.37-2.29-2.33-4.99.13-9.98.09-14.97.11-1.53.02-3.05.03-4.58.05-5.95-.05-11.89-.11-17.84-.16-.72-3.83-.09-7.7-.36-11.54-.16-2.24.88-2.68,2.87-2.67,16.68.06,33.35.07,50.03-.02,2.45-.01,3.2.73,3.15,3.17-.18,8.7-.16,17.41-.21,26.12-.54,1.73-1.08,3.46-1.61,5.19Z"/>
        <path class="cls-4" d="M52.67,111.29c-1.23-1.28-2.46-2.56-3.69-3.83-3.35-5.51-4.1-11.53-3.85-17.87.24-6.21.31-12.44,0-18.64-.45-8.58,2.46-15.51,9.09-20.92,1.5-.81,2.99-1.61,4.49-2.42,5.82-2.15,11.91-1.08,17.88-1.5,1.53,0,3.07,0,4.6.01,9.95-.02,19.89-.03,29.84-.05,1.33,0,2.66,0,3.98,0,7.14-.16,13.89.89,19.33,6.11,1.75,2.3,3.5,4.6,5.25,6.9.03.16.06.32.1.49-.28.93.06,1.69.63,2.39,1.53,7.92.4,15.94.88,23.89-.29,6.84.57,13.85-3.15,20.15-5.38,7.64-12.84,10.86-22.05,10.5-1.84-.07-3.7.16-5.55.25-9.53-.66-19.07-.43-28.6-.09-5.06-.06-10.12-.04-15.18-.22-5.19-.19-9.82-2.1-13.99-5.13ZM123.84,62.7c-1.21-1.32-2.81-.75-4.24-.76-15.93-.04-31.85-.09-47.78.03-3.14.02-6.41-.91-9.45.7-.25.41-.71.82-.71,1.23-.05,11.34-.05,22.67-.08,34.01,0,1.82,1.02,2.37,2.63,2.35,5.61-.07,11.21-.12,16.82-.19,1.32,0,2.64,0,3.96,0,7.44.01,14.89.03,22.33.04,1.29,0,2.58-.01,3.87-.02,3.23.06,6.47-.02,9.69.21,3.02.21,3.83-1.07,3.8-3.93-.13-10.19-.04-20.39-.07-30.59,0-1.07.37-2.28-.77-3.08Z"/>
        <path class="cls-2" d="M195.23,33.56c-.75,3.18-2.36,6-3.8,8.89-.28-6.35-.5-12.7-.84-19.04-.28-5.05-4.08-8.72-8.92-8.78-5.29-.07-8.9,3.29-9.19,8.73-.52,9.7-.93,19.41-1.45,29.11-.38,7.09-1.04,14.16-1.24,21.25-.16,5.77-.79,11.55-.22,17.33-1.69,3.57-3.37,7.14-5.06,10.72.57-13.69,1.11-27.39,1.72-41.08.31-6.97.76-13.93,1.11-20.9.29-5.85.45-11.71.81-17.55.39-6.24,5.91-11.5,12.39-11.97,6.17-.45,12.29,3.92,13.77,9.87,1.1,4.41.61,8.94.91,13.42Z"/>
        <path class="cls-2" d="M255.84,100.18c-1.72-3.55-3.44-7.1-5.17-10.65.62-.41.6-1.04.56-1.66-.72-12.06-1.45-24.13-2.16-36.19-.54-9.08-.98-18.17-1.59-27.25-.42-6.26-4.15-9.96-9.56-9.79-5.38.16-8.77,4.01-8.98,10.36-.17,5.36-.11,10.72-.91,16.04-1.44-2.81-2.89-5.62-4.33-8.44,1.4-3.26.94-6.77,1.26-10.16.65-6.8,6.32-12.2,13.3-12.18,6.87.01,12.78,5.56,13.17,12.31,1.25,21.65,2.46,43.29,3.82,64.93.27,4.23.69,8.44.59,12.68Z"/>
        <path class="cls-2" d="M114.99,46.06c-1.33,0-2.66,0-3.98,0,.29-5.46.51-10.93.9-16.38.45-6.37,6.04-11.44,12.85-11.82,6.04-.33,12.54,4.21,13.29,10.34,1.25,10.22,1.87,20.53,1.53,30.86-1.75-2.3-3.5-4.6-5.25-6.9.28-.36.81-.74.8-1.09-.28-7.19-.35-14.41-1.05-21.56-.44-4.52-4.8-7.51-9.39-7.32-4.61.19-8.01,3.48-8.44,8.3-.46,5.18-.84,10.38-1.25,15.56Z"/>
        <path class="cls-2" d="M138.04,105.98c3.72-6.3,2.86-13.32,3.15-20.15,1.36,5.33.7,10.82,1.14,16.23.96,11.72,1.23,23.5,1.82,35.26.11,2.29-.13,4.75,2.25,6.24.98,3.19,3.69,3.67,6.4,3.89,3.06.25,5.78-.5,7.71-3.84h-14.17c.05-.3.09-.6.14-.9,5.23.11,10.46.17,15.69.37,3.45.13,2.84-3.28,4.38-4.79.09,7.07-4.96,12.94-11.66,13.54-7.56.68-13.76-3.91-14.56-11.28-.74-6.78-1.09-13.61-1.36-20.43-.18-4.72-.37-9.43-.95-14.13Z"/>
        <path class="cls-2" d="M285.16,49.84c-1.48,1.57-2.96,3.13-4.43,4.7.27-8.34.3-16.7.89-25.02.58-8.12,6.29-12.88,14.28-12.6,7.07.25,11.96,5.91,12.56,13.68.4,5.18.03,10.44,1.41,15.54-1.54-.02-3.07-.05-4.61-.07-.44-5.58-.87-11.16-1.32-16.74-.39-4.85-3.71-7.95-8.59-8.06-5.11-.11-9.2,2.89-9.35,7.66-.22,6.97-1.28,13.91-.83,20.91Z"/>
        <path class="cls-2" d="M278.45,102.31c.89,2.71,2.19,5.22,3.74,7.6-.51,9.96-1.01,19.91-1.53,29.87-.3,5.7-4.93,10.86-10.68,11.93-5.72,1.07-12.2-2.05-14.52-7-.33-.7-.46-1.41-.17-2.16,6.72.35,13.46,1.08,20.13-.51,1.36-1.5,1.28-3.35,1.36-5.2.54-11.51,1.11-23.02,1.66-34.53ZM274.66,143.84h-14.12c3.53,4.91,9.38,5.01,14.12,0Z"/>
        <path class="cls-2" d="M337.55,62.01c1.52-.01,3.05-.02,4.57-.03-.25,2.35-.45,4.7-.77,7.04-.34,2.5.44,3.56,3.19,3.42,4.48-.22,8.97-.06,13.46-.06,5.99,0,5.96,0,5.16-5.87-.2-1.47-.12-2.98-.16-4.48,1.33,0,2.67,0,4.01.01-.46,2.98,1.01,5.78.72,8.8-.21,2.18,1.91,1.6,3.06,1.48,3.02-.32,3.83.9,3.75,3.81-.19,7.44-.05,14.89-.08,22.34,0,1.33.32,2.76-.77,3.89.05-8.71.03-17.42.21-26.12.05-2.45-.7-3.19-3.15-3.17-16.68.09-33.35.07-50.03.02-1.99,0-3.03.43-2.87,2.67.27,3.84-.36,7.71.36,11.54-1.44-.4-.91-1.6-.93-2.48-.07-3.12.12-6.25-.07-9.36-.15-2.6,1.01-3.24,3.33-3.1,2.37.14,4.74.03,7.12.03q10.01,0,9.91-10.37Z"/>
        <path class="cls-2" d="M342.92,46.09c-1.53.02-3.05.03-4.58.05,2.29-8.38,5.96-12.1,12.17-12.72,8.14-.81,15.8,5.7,14.86,15.05-1.53-.55-3.07-1.11-4.6-1.66.12-5.02-2.96-8.63-7.69-9.01-5.67-.45-9.25,2.47-10.16,8.28Z"/>
        <path class="cls-2" d="M81.17,46.11c-1.53,0-3.07,0-4.6-.01-1.04-5.08-4.7-7.87-9.81-7.47-4.77.37-7.73,3.66-8.07,8.98-1.5.81-2.99,1.61-4.49,2.42-.13-4.94.91-9.45,4.97-12.73,7.96-6.41,20.23-2.36,22,8.81Z"/>
        <path class="cls-2" d="M140.31,61.93c-.58-.7-.91-1.46-.63-2.39.65.68.88,1.47.63,2.39Z"/>
        <path class="cls-1" d="M81.84,116.64c9.54-.34,19.07-.57,28.6.09-.16,4.21.25,8.43-.6,12.64-1.46,7.24-6.78,12.09-13.51,11.98-7.02-.11-12.89-5.56-13.63-12.83-.41-3.95-.58-7.92-.86-11.88Z"/>
        <path class="cls-2" d="M174.17,121.16c.71-1.36,1.99-.75,3-.76,21.95-.04,43.9-.04,65.85,0,1.02,0,2.29-.56,3.01.77-6.24-.02-12.47.04-18.71-.1-2.28-.05-2.96.66-3,2.96-.09,6.09-.49,12.18-.76,18.27-.34,7.67-5.97,13.21-13.42,13.21-7.45,0-13.08-5.54-13.45-13.22-.29-6.09-.68-12.18-.77-18.27-.04-2.33-.81-2.99-3.05-2.95-6.23.13-12.47.07-18.71.09ZM210.02,121.11c-2.37,0-4.75.11-7.11-.03-2.18-.13-2.84.76-2.72,2.83.37,6.46.51,12.93.97,19.38.33,4.63,4.14,7.82,8.89,7.84,4.81.03,8.71-3.09,9.04-7.66.47-6.57.61-13.17.95-19.76.1-1.9-.56-2.73-2.54-2.63-2.49.12-4.99.03-7.48.03Z"/>
        <path class="cls-2" d="M333.85,116.55c1.52.02,3.04.04,4.56.06-.27,4.33-.45,8.67-.83,12.98-.55,6.25-6.58,11.48-13.09,11.52-6.42.04-12.14-4.92-13.23-10.95-.82-4.52.05-9.18-1.41-13.61,1.52.02,3.05.04,4.58.06.4,4.46.49,8.97,1.3,13.35.79,4.28,4.99,7.12,9.05,6.85,4.62-.31,7.77-3.32,8.51-7.97.65-4.08.72-8.18.57-12.29Z"/>
        <path class="cls-2" d="M254.48,140.43c.67.44.78,1.07.62,1.79-.79-.39-.71-1.09-.62-1.79Z"/>
        <path class="cls-5" d="M197.24,70c4.07-9.32,8.14-18.65,12.56-28.76,4.6,10.26,9.31,19.69,13.13,29.54-.21,1.84-.83,3.59-.87,5.5-.15,8.21-.55,16.42-.7,24.63-.04,2.24-.7,3.06-3.02,2.99-5.49-.15-10.99-.14-16.48,0-2.24.05-2.96-.58-3.05-2.92-.39-10.33-1.03-20.65-1.57-30.98Z"/>
        <path class="cls-5" d="M169.58,91.05c-.57-5.78.06-11.56.22-17.33.19-7.09.86-14.17,1.24-21.25.52-9.7.92-19.41,1.45-29.11.29-5.43,3.9-8.79,9.19-8.73,4.84.06,8.64,3.73,8.92,8.78.35,6.34.57,12.69.84,19.04-7.28,16.2-14.57,32.4-21.85,48.6Z"/>
        <path class="cls-5" d="M228.04,41.03c.79-5.32.73-10.69.91-16.04.21-6.34,3.6-10.2,8.98-10.36,5.41-.16,9.14,3.54,9.56,9.79.61,9.08,1.06,18.16,1.59,27.25.71,12.06,1.44,24.13,2.16,36.19.04.62.05,1.25-.56,1.66-7.63-16.12-15.58-32.1-22.63-48.5Z"/>
        <path class="cls-2" d="M197.24,70c.55,10.32,1.18,20.65,1.57,30.98.09,2.34.81,2.98,3.05,2.92,5.49-.13,10.99-.15,16.48,0,2.32.06,2.98-.75,3.02-2.99.15-8.21.54-16.42.7-24.63.04-1.91.66-3.65.87-5.5,1.66,2.59,2.9,5.38,3.75,8.34-1.81,3.27-.4,6.77-.7,10.15-.34,3.91-1.14,7.77-.84,11.77.18,2.38.97,2.93,3.1,2.84,3.22-.14,6.45-.06,9.67-.07-.24,1.62-1.49.73-2.18.73-17.08.06-34.16.06-51.24-.01-.8,0-3.04,1.2-2.23-1.52,1.27,1.55,3.02.78,4.53.8,7.75.09,7.86.04,7.54-7.79-.23-5.63-.11-11.3-1.41-16.84,1.44-3.06,2.88-6.12,4.32-9.19Z"/>
        <path class="cls-5" d="M237.91,103.81c-3.22.01-6.45-.07-9.67.07-2.14.09-2.92-.46-3.1-2.84-.3-4.01.5-7.86.84-11.77.3-3.38-1.11-6.89.7-10.15,4.22,8.02,7.9,16.28,11.24,24.7Z"/>
        <path class="cls-5" d="M192.92,79.18c1.3,5.54,1.18,11.22,1.41,16.84.32,7.83.21,7.88-7.54,7.79-1.51-.02-3.26.76-4.53-.8,3.55-7.94,7.11-15.89,10.66-23.83Z"/>
        <path class="cls-5" d="M337.55,62.01q.1,10.37-9.91,10.37c-2.37,0-4.75.11-7.12-.03-2.32-.14-3.48.51-3.33,3.1.19,3.11,0,6.24.07,9.36.02.88-.51,2.09.93,2.48,5.95.05,11.89.11,17.84.16-.25,4.22-.49,8.44-.74,12.66-7.23.02-14.46.04-21.69.06-.09-.36-.24-.72-.27-1.09-.89-11.53-1.75-23.06-2.66-34.59-.13-1.62.76-1.76,2.04-1.87,1.81-.15,3.74.68,5.41-.63,6.47,0,12.94,0,19.42.01Z"/>
        <path class="cls-5" d="M309.06,100.11c-3.87.05-7.74.1-11.6.15-1.58.02-2.65-.46-2.64-2.32.03-11.36.03-22.72.07-34.08,0-.41.45-.81.7-1.21,2.49,0,5,.19,7.46-.03,2.62-.24,3.55.91,3.7,3.32.74,11.4,1.53,22.79,2.31,34.18Z"/>
        <path class="cls-5" d="M285.16,49.84c-.45-6.99.61-13.93.83-20.91.15-4.77,4.25-7.77,9.35-7.66,4.88.11,8.2,3.21,8.59,8.06.45,5.58.88,11.16,1.32,16.74-2.86.05-5.73.2-8.58.12-4.29-.13-7.97,1.5-11.52,3.65Z"/>
        <path class="cls-5" d="M333.85,116.55c.15,4.11.08,8.21-.57,12.29-.74,4.65-3.89,7.66-8.51,7.97-4.06.27-8.26-2.57-9.05-6.85-.81-4.38-.9-8.89-1.3-13.35,6.48-.02,12.95-.04,19.43-.07Z"/>
        <path class="cls-5" d="M363,62.04c.05,1.49-.04,3,.16,4.48.8,5.87.83,5.87-5.16,5.87-4.49,0-8.98-.16-13.46.06-2.75.14-3.53-.92-3.19-3.42.32-2.34.52-4.69.77-7.04,6.96.02,13.91.04,20.87.06Z"/>
        <path class="cls-5" d="M340.62,87.4c4.99-.02,9.98.02,14.97-.11,1.82-.05,2.33.55,2.29,2.33-.29,13,1.86,10.36-10.17,10.63-2.62.06-5.24-.05-7.86-.08-.03-4.27-.41-8.57.76-12.77Z"/>
        <path class="cls-2" d="M309.06,100.11c-.77-11.39-1.57-22.79-2.31-34.18-.16-2.41-1.08-3.56-3.7-3.32-2.47.22-4.98.04-7.46.03.73-.97,1.79-.71,2.76-.71,6.6,0,13.2.04,19.8.07-1.67,1.31-3.61.47-5.41.63-1.28.11-2.17.25-2.04,1.87.9,11.53,1.77,23.06,2.66,34.59.03.37.18.72.27,1.09-1.52-.02-3.04-.04-4.56-.06Z"/>
        <path class="cls-5" d="M342.92,46.09c.91-5.81,4.49-8.74,10.16-8.28,4.73.38,7.81,3.99,7.69,9.01-5.91-1.13-11.91-.3-17.85-.73Z"/>
        <path class="cls-2" d="M340.62,87.4c-1.17,4.2-.8,8.5-.76,12.77-1.52-.02-3.04-.04-4.56-.06.25-4.22.49-8.44.74-12.66,1.53-.02,3.05-.03,4.58-.05Z"/>
        <path class="cls-5" d="M107.32,100.11c-7.44-.01-14.89-.03-22.33-.04-.79-11.02-1.44-22.06-2.45-33.06-.35-3.83.97-4.6,4.47-4.43,5.84.28,11.7.08,17.56.08,5.52,0,5.42,0,4.99,5.62-.81,10.61-1.49,21.22-2.22,31.83Z"/>
        <path class="cls-5" d="M81.02,100.07c-5.61.06-11.21.12-16.82.19-1.6.02-2.63-.53-2.63-2.35.03-11.34.03-22.67.08-34.01,0-.41.46-.82.71-1.23,4.37,0,8.74.01,13.11-.02,1.49-.01,2.64.04,2.7,2.08.09,3.23.46,6.45.73,9.68.7,8.56,1.41,17.11,2.11,25.67Z"/>
        <path class="cls-5" d="M123.84,62.7c1.14.8.77,2.01.77,3.08.02,10.2-.07,20.39.07,30.59.04,2.86-.78,4.14-3.8,3.93-3.22-.23-6.46-.15-9.69-.21.73-9.54,1.37-19.08,2.24-28.61.26-2.88-1.53-6.89.89-8.36,2.29-1.39,6.03-.37,9.14-.42.12,0,.25,0,.37,0Z"/>
        <path class="cls-5" d="M114.99,46.06c.41-5.19.78-10.38,1.25-15.56.43-4.81,3.84-8.11,8.44-8.3,4.59-.19,8.95,2.79,9.39,7.32.7,7.15.77,14.37,1.05,21.56.01.35-.52.73-.8,1.09-5.44-5.22-12.19-6.27-19.33-6.11Z"/>
        <path class="cls-2" d="M123.84,62.7c-.12,0-.25,0-.37,0-3.1.04-6.85-.97-9.14.42-2.43,1.47-.63,5.48-.89,8.36-.87,9.53-1.51,19.07-2.24,28.61-1.29,0-2.58.01-3.87.02.73-10.61,1.42-21.23,2.22-31.83.43-5.62.53-5.62-4.99-5.62-5.85,0-11.72.2-17.56-.08-3.5-.17-4.82.6-4.47,4.43,1.02,11,1.66,22.04,2.45,33.06-1.32,0-2.64,0-3.96,0-.71-8.55-1.41-17.11-2.11-25.66-.26-3.23-.63-6.45-.73-9.68-.06-2.04-1.21-2.09-2.7-2.08-4.37.04-8.74.02-13.11.02,3.04-1.61,6.31-.68,9.45-.7,15.92-.12,31.85-.07,47.78-.03,1.42,0,3.02-.57,4.24.76Z"/>
        <path class="cls-5" d="M58.69,47.6c.35-5.32,3.3-8.61,8.07-8.98,5.11-.4,8.77,2.39,9.81,7.47-5.97.42-12.06-.65-17.88,1.5Z"/>
        <path class="cls-5" d="M146.36,143.6h14.17c-1.94,3.35-4.65,4.1-7.71,3.84-2.71-.22-5.43-.7-6.4-3.89,0,0-.05.05-.05.05Z"/>
        <path class="cls-5" d="M274.66,143.84c-4.75,5.01-10.59,4.91-14.12,0h14.12Z"/>
        <path class="cls-5" d="M210.02,121.11c2.49,0,4.99.09,7.48-.03,1.99-.09,2.64.73,2.54,2.63-.34,6.58-.48,13.18-.95,19.76-.33,4.57-4.23,7.69-9.04,7.66-4.75-.02-8.56-3.21-8.89-7.84-.46-6.45-.6-12.92-.97-19.38-.12-2.07.55-2.97,2.72-2.83,2.36.14,4.74.03,7.11.03Z"/>
      </g>
    </g>
  </g>
</svg>